<?xml version="1.0" encoding="utf-8"?>
<!-- Generator: Adobe Illustrator 18.0.0, SVG Export Plug-In . SVG Version: 6.00 Build 0)  -->
<!DOCTYPE svg PUBLIC "-//W3C//DTD SVG 1.1//EN" "http://www.w3.org/Graphics/SVG/1.1/DTD/svg11.dtd">
<svg version="1.1" id="Layer_1" xmlns="http://www.w3.org/2000/svg" xmlns:xlink="http://www.w3.org/1999/xlink" x="0px" y="0px"
	 viewBox="30.1 1.6 306 308.2" enable-background="new 30.1 1.6 306 308.2" xml:space="preserve">
<g>
	<g>
		<path d="M336.1,154.8c-0.1,15.7-2.6,31.1-7.2,46.1c-3,9.8-6.7,19.3-11.6,28.2c-5.1,9.5-10.9,18.7-18.2,26.7
			c-4.2,4.7-8.5,9.3-13,13.7c-8.6,8.2-18.2,15-28.6,20.8c-10,5.6-20.5,10.1-31.5,13.4c-4.6,1.4-9.4,2.2-14.1,3.3
			c-7.6,1.8-15.3,2.3-23,2.8c-1.7,0.1-3.4-0.1-5.1-0.1c-8.7,0.4-17.3-0.6-25.9-1.8c-3.1-0.5-6.1-1.2-9.3-1.9
			c-13.2-3.1-25.8-7.8-37.8-14.3c-9.3-5.1-18.1-10.9-26.2-18c-8-6.9-15.4-14.4-21.8-22.7c-8.6-11.1-15.5-23.1-20.8-36.2
			c-4.7-11.9-8.2-24.1-10.1-36.7c-1.8-11.4-2-22.8-1.3-34.3c1-16.1,4.7-31.6,10.7-46.5c6.4-15.8,15.2-30.2,26.5-43
			c22-25.1,49.3-41.3,81.7-48.8c13.5-3.1,27.2-4.3,41.1-3.5c33.5,1.8,63.3,13.3,89.2,34.5c15.5,12.7,28,28,37.6,45.6
			c9.1,16.6,14.9,34.3,17.2,53.1C335.4,141.5,335.6,148.2,336.1,154.8z M322.5,154c-0.4-77.2-62.4-139.3-139.7-139.2
			C105.8,14.9,43.3,77,43.5,154.5c0.2,76.9,62,139.1,139.6,139.1C260.7,293.6,322.3,231.1,322.5,154z"/>
		<path d="M251.9,131.3c0,22.8,0,45.6,0,68.4c0,7.2-1.9,13.7-6.9,19.1c-1.6,1.8-3.5,3.4-5.6,4.6c-7.9,4.4-16.5,5.9-25.3,4.5
			c-8.8-1.4-14.5-7-17.1-15.2c-2.7-8.2-0.5-15.7,5.5-22c4-4.1,9.3-6.1,14.7-7.4c5.1-1.3,10.2-2.3,15.3-3.4c6-1.2,8-3.7,8-9.9
			c0-20.6,0-41.2,0-61.8c0-5.8-1.7-7.2-7.5-6.1c-20.6,4.2-41.3,8.4-61.9,12.5c-3.6,0.7-7.2,1.4-10.7,2.2c-3.7,0.7-4.9,2-5.4,5.7
			c-0.1,1.1-0.2,2.2-0.2,3.2c0,30.8,0,61.6,0,92.4c0,5.3-0.9,10.5-3.5,15.3c-3.3,6.1-8.2,10.2-14.9,12.2c-6.8,2-13.6,3.3-20.6,1.6
			c-8.9-2-15.2-9.2-16.4-18.3c-1.2-9.5,3.2-18.2,11.5-22.6c5.5-2.9,11.6-4.1,17.5-5.4c2.7-0.6,5.4-1,8.1-1.7c4.6-1.1,6.9-3.9,7-8.6
			c0-0.8,0-1.7,0-2.5c0-34.7,0-69.4,0-104.1c0-1.1,0-2.2,0.1-3.2c0.7-4.3,3.2-7,7.8-8c8.8-1.9,17.6-3.6,26.5-5.4
			c19.8-4,39.6-8,59.4-12c2-0.4,3.9-0.7,5.8-1c5.4-0.9,8.7,1.8,8.7,7.2C251.9,84.8,251.9,108.1,251.9,131.3L251.9,131.3z"/>
	</g>
</g>
</svg>
